<?xml version="1.0" standalone="no"?>
<!DOCTYPE svg PUBLIC "-//W3C//DTD SVG 20010904//EN"
 "http://www.w3.org/TR/2001/REC-SVG-20010904/DTD/svg10.dtd">
<svg version="1.0" xmlns="http://www.w3.org/2000/svg"
 width="639.000000pt" height="361.000000pt" viewBox="0 0 639.000000 361.000000"
 preserveAspectRatio="xMidYMid meet">

<g transform="translate(0.000000,361.000000) scale(0.100000,-0.100000)"
fill="#000000" stroke="none">
<path d="M3758 3454 c-35 -18 -41 -42 -108 -389 -66 -344 -106 -525 -117 -536
-16 -16 -172 -34 -185 -21 -8 8 -6 35 7 99 24 120 30 241 13 273 -16 30 -91
70 -133 70 -44 0 -91 -33 -104 -72 -5 -18 -17 -84 -26 -146 -23 -172 -43 -242
-79 -278 -40 -39 -234 -105 -396 -133 -158 -28 -189 -38 -223 -72 -25 -26 -29
-36 -24 -68 7 -57 34 -105 70 -126 48 -29 126 -23 316 25 114 29 167 38 174
31 11 -11 7 -39 -28 -196 -70 -312 -92 -847 -40 -971 25 -60 65 -113 114 -150
36 -28 53 -34 92 -34 36 0 54 5 69 20 25 25 25 37 0 134 -80 304 -63 601 61
1101 22 88 47 166 54 174 18 18 207 53 219 41 10 -10 9 -21 -53 -490 -59 -441
-101 -789 -101 -834 0 -28 6 -62 13 -76 29 -57 138 -94 210 -71 59 20 75 47
111 192 36 140 138 433 206 591 47 107 86 171 103 165 8 -2 11 -106 12 -373 1
-407 2 -419 62 -484 75 -83 151 -107 227 -70 53 25 91 78 80 112 -4 13 -24 44
-45 70 -22 25 -49 68 -61 94 -20 45 -20 59 -15 219 4 93 16 256 27 360 11 105
23 236 27 292 5 91 4 104 -15 135 -43 69 -143 98 -218 62 -62 -30 -196 -194
-308 -377 -104 -169 -105 -163 -46 223 11 74 25 169 31 210 16 114 15 113 178
144 293 55 613 106 668 106 32 0 85 -7 118 -15 120 -29 155 -15 155 59 0 65
-36 127 -91 154 -94 46 -196 43 -682 -24 -142 -20 -260 -34 -263 -32 -2 3 7
65 21 139 93 489 113 661 86 712 -24 45 -109 61 -163 31z"/>
<path d="M1237 2740 c-73 -19 -141 -63 -235 -153 -262 -253 -587 -699 -802
-1101 -146 -274 -207 -567 -149 -720 25 -69 96 -149 163 -184 43 -23 64 -27
136 -27 95 0 146 19 209 78 42 40 346 369 509 550 68 75 127 137 132 137 17 0
11 -71 -15 -211 -50 -262 -64 -353 -76 -476 -27 -307 64 -516 215 -488 40 8
74 36 80 68 3 12 7 195 10 407 3 323 7 406 24 516 34 216 74 338 137 412 47
56 76 65 177 57 64 -5 93 -3 104 5 21 18 17 78 -10 137 -36 77 -73 95 -225
113 -100 11 -214 1 -456 -40 -93 -15 -201 -31 -238 -35 -84 -8 -113 -30 -103
-78 16 -81 96 -146 177 -147 41 0 64 -20 55 -48 -4 -10 -163 -177 -354 -371
-291 -295 -351 -352 -374 -351 -27 0 -28 2 -28 50 0 279 263 813 618 1255 192
240 431 455 504 455 41 0 44 -33 14 -122 -14 -41 -26 -84 -26 -96 0 -51 69
-69 124 -31 71 49 96 122 79 226 -18 103 -80 177 -172 203 -54 15 -161 20
-204 10z"/>
<path d="M4879 2031 c-150 -49 -314 -273 -413 -565 -21 -60 -46 -228 -46 -304
0 -122 53 -244 128 -295 86 -60 127 -71 277 -75 124 -3 146 -1 196 17 74 28
167 89 253 165 l69 61 -7 -53 c-13 -98 21 -148 116 -173 53 -15 98 -1 122 36
8 12 31 79 50 148 20 70 53 166 74 214 77 180 226 368 362 458 59 38 70 50 70
74 0 34 -38 78 -74 87 -89 22 -264 -81 -331 -195 -16 -28 -34 -51 -39 -51 -4
0 -5 33 -2 73 19 220 20 210 -5 241 -28 35 -76 56 -129 56 -54 0 -76 -13 -89
-52 -12 -37 -81 -513 -81 -559 0 -25 -6 -33 -33 -44 -19 -8 -54 -31 -78 -51
-148 -124 -306 -232 -387 -263 -109 -43 -177 -21 -201 65 -15 53 -1 70 100
128 157 90 408 374 445 504 29 97 4 187 -73 273 -20 22 -55 50 -77 61 -45 23
-153 33 -197 19z m94 -271 c-4 -38 -106 -238 -157 -308 -46 -62 -78 -88 -96
-77 -20 12 -9 42 63 170 133 237 139 246 167 243 20 -2 25 -8 23 -28z"/>
<path d="M2172 1980 c-82 -37 -204 -191 -310 -390 -71 -133 -109 -227 -143
-360 -34 -129 -33 -179 4 -246 28 -49 104 -101 161 -109 91 -14 146 32 355
298 51 64 96 117 101 117 10 0 17 -35 24 -133 9 -117 67 -211 156 -257 81 -41
160 -35 160 13 0 12 -10 47 -22 77 -20 48 -23 74 -23 195 0 115 5 165 29 280
33 165 32 228 -8 280 -31 40 -55 49 -103 40 -51 -9 -118 -76 -313 -310 -291
-349 -322 -356 -188 -45 61 144 140 288 184 335 33 36 33 36 64 20 50 -26 100
-16 127 24 29 43 29 69 1 111 -50 73 -167 100 -256 60z"/>
</g>
</svg>
