<?xml version="1.0" standalone="no"?>
<!DOCTYPE svg PUBLIC "-//W3C//DTD SVG 1.0//EN" "http://www.w3.org/TR/2001/REC-SVG-20010904/DTD/svg10.dtd">
<svg xmlns="http://www.w3.org/2000/svg" xmlns:xlink="http://www.w3.org/1999/xlink" id="body_1" width="168" height="109">

<g transform="matrix(0.9491526 0 0 0.9478261 0 0)">
	<g transform="matrix(0.9414894 0 0 0.942623 0 0)">
		<g transform="matrix(0.62046206 0 0 0.62244904 0 0)">
			<g transform="matrix(1.2893617 0 0 1.2894738 0 0)">
				<g transform="matrix(0.7484077 0 0 0.7484077 -0 0.07324656)">
					<g transform="matrix(0.1 0 -0 -0.1 0 203)">
                        <path d="M1917 1788C 1897 1773 1830 1621 1806 1535C 1745 1323 1740 1310 1714 1310C 1699 1310 1691 1306 1695 1299C 1699 1293 1708 1291 1716 1294C 1724 1297 1730 1295 1730 1290C 1730 1284 1715 1280 1696 1280C 1674 1280 1660 1274 1656 1264C 1651 1250 1655 1248 1679 1253C 1696 1257 1712 1255 1715 1250C 1722 1239 1654 949 1634 902C 1626 884 1620 863 1620 856C 1620 848 1613 837 1605 830C 1595 822 1593 814 1599 810C 1606 807 1600 789 1584 766C 1569 745 1555 732 1551 738C 1548 743 1537 736 1526 721L1526 721L1506 695L1528 714C 1568 749 1551 715 1508 675C 1485 653 1472 644 1480 655C 1488 666 1470 652 1442 623C 1349 531 1321 542 1319 669C 1316 811 1321 842 1349 885C 1383 936 1447 1077 1502 1223C 1511 1248 1517 1250 1563 1250C 1592 1250 1622 1255 1630 1261C 1643 1270 1643 1271 1630 1269C 1622 1268 1596 1268 1573 1269C 1533 1270 1531 1271 1534 1298C 1536 1313 1554 1378 1574 1443C 1594 1508 1615 1591 1621 1626C 1631 1683 1630 1693 1615 1709C 1580 1748 1561 1743 1521 1680C 1488 1629 1394 1395 1375 1318C 1371 1302 1364 1290 1359 1290C 1354 1290 1353 1283 1356 1275C 1361 1263 1353 1260 1319 1260C 1289 1260 1280 1263 1289 1269C 1298 1275 1246 1276 1159 1273C 1080 1270 1013 1266 1011 1264C 1009 1262 1010 1250 1014 1236C 1023 1201 1057 1197 1184 1215C 1337 1236 1352 1236 1345 1208C 1342 1195 1338 1170 1337 1153C 1336 1135 1331 1120 1327 1120C 1322 1120 1320 1112 1321 1103C 1322 1093 1320 1078 1317 1070C 1314 1062 1306 1022 1300 982C 1290 924 1285 910 1272 912C 1260 914 1255 907 1254 889C 1253 875 1249 857 1245 850C 1239 841 1241 839 1251 845C 1259 850 1256 844 1246 831C 1235 819 1220 812 1213 815C 1205 817 1202 816 1205 810C 1210 802 1175 776 1157 775C 1153 775 1146 769 1141 762C 1136 754 1131 749 1129 750C 1127 751 1101 745 1071 736C 1041 727 1014 722 1012 725C 1009 727 1012 753 1018 782C 1031 851 1020 885 984 876C 961 870 960 871 970 890C 991 929 950 970 889 970C 851 970 803 924 752 837C 704 758 693 709 715 676C 746 629 787 644 898 744C 932 775 965 800 970 800C 976 800 980 776 980 747C 980 718 985 689 992 682C 1024 650 1132 692 1226 774L1226 774L1276 818L1277 726C 1279 586 1312 520 1381 520C 1425 520 1465 551 1526 630C 1547 658 1567 680 1571 680C 1575 680 1580 670 1583 658C 1587 645 1596 626 1604 615C 1622 592 1615 586 1715 715C 1744 754 1782 798 1798 814L1798 814L1828 842L1846 780C 1870 695 1921 640 1975 640C 2017 640 2090 677 2113 710C 2121 721 2143 747 2162 768C 2181 788 2196 808 2196 812C 2195 815 2198 821 2201 825C 2205 828 2210 808 2214 779C 2223 709 2257 676 2310 683C 2359 689 2442 730 2436 745C 2434 752 2446 762 2463 768C 2503 783 2547 816 2538 825C 2535 828 2506 818 2474 802C 2391 760 2308 736 2276 744C 2248 751 2244 764 2260 804C 2268 825 2276 830 2303 830C 2343 830 2402 869 2443 923C 2475 965 2476 972 2454 1005C 2419 1059 2341 1026 2269 927C 2243 891 2154 817 2042 737C 2006 712 1979 700 1955 700C 1913 700 1904 715 1895 800C 1881 930 1836 945 1738 853C 1689 806 1679 800 1685 820C 1695 856 1724 916 1765 990C 1814 1077 1834 1116 1860 1174C 1876 1212 1885 1221 1900 1217C 1924 1211 1934 1235 1919 1262C 1911 1276 1911 1289 1918 1304C 1965 1401 2030 1632 2030 1700C 2030 1742 2025 1755 2004 1775C 1974 1802 1943 1807 1917 1788zM1965 1590C 1933 1453 1850 1270 1820 1270C 1792 1270 1785 1290 1812 1291C 1829 1292 1830 1294 1818 1297C 1808 1299 1800 1304 1800 1307C 1800 1328 1852 1503 1862 1515C 1866 1520 1870 1531 1870 1540C 1870 1566 1940 1723 1964 1748L1964 1748L1985 1772L1988 1737C 1990 1719 1979 1652 1965 1590zM1560 1628C 1543 1544 1469 1316 1456 1305C 1450 1300 1446 1287 1448 1278C 1450 1265 1445 1260 1431 1260C 1419 1260 1410 1265 1410 1270C 1410 1276 1414 1280 1420 1280C 1425 1280 1429 1288 1427 1298C 1423 1333 1510 1613 1543 1669C 1569 1712 1575 1696 1560 1628zM1828 1241C 1838 1235 1832 1221 1805 1181C 1770 1127 1761 1103 1781 1116C 1788 1120 1791 1117 1788 1109C 1785 1101 1778 1095 1771 1095C 1765 1095 1755 1088 1750 1080C 1736 1058 1738 1071 1761 1165C 1783 1251 1794 1263 1828 1241zM1440 1237C 1440 1210 1363 1024 1355 1032C 1353 1034 1358 1065 1366 1100C 1396 1230 1400 1240 1420 1240C 1431 1240 1440 1239 1440 1237zM2399 964C 2386 950 2362 931 2345 923C 2318 910 2319 912 2357 949C 2403 994 2438 1006 2399 964zM920 878C 920 850 910 836 848 783C 752 699 746 700 797 796C 819 837 891 910 910 910C 916 910 920 895 920 878zM1250 811C 1250 806 1243 799 1234 796C 1220 791 1219 792 1230 805C 1244 822 1250 824 1250 811z" stroke="none" fill="#000000" fill-rule="nonzero" />
                        <path d="M640 1569C 610 1557 560 1511 560 1495C 560 1488 551 1475 540 1465C 529 1455 523 1444 526 1439C 528 1435 512 1400 489 1363C 466 1326 436 1275 422 1250C 408 1225 393 1203 390 1200C 387 1197 375 1177 363 1155C 352 1133 317 1066 286 1005C 254 945 213 852 195 800C 176 748 160 714 160 725C 157 761 142 700 141 649C 140 606 144 599 185 561C 224 526 236 520 275 520C 330 520 376 547 443 618C 469 646 490 666 490 662C 490 658 485 635 479 610C 437 437 460 278 537 197C 586 147 608 167 566 223C 503 306 496 441 545 600C 560 647 574 696 577 710C 583 740 627 840 697 979C 725 1036 746 1088 744 1095C 741 1102 728 1113 715 1120C 695 1131 688 1131 674 1119C 655 1104 606 1002 594 956C 590 940 581 915 574 901C 566 887 560 872 560 868C 560 844 367 617 321 587C 257 544 200 558 200 615C 200 649 228 778 240 801C 246 811 247 820 242 820C 238 820 228 804 221 784C 204 736 198 746 213 797C 226 841 240 863 240 839C 240 831 247 838 255 854C 263 869 270 886 270 891C 270 896 284 929 300 965C 317 1001 330 1037 330 1045C 330 1053 334 1060 339 1060C 344 1060 356 1077 365 1098C 416 1206 609 1455 673 1496C 697 1511 703 1511 711 1499C 716 1491 720 1475 720 1463C 720 1435 734 1426 760 1440C 775 1448 780 1461 780 1491C 780 1562 715 1599 640 1569zM193 708C 190 690 183 668 178 660C 170 646 174 677 187 723C 195 753 200 742 193 708zM523 690C 520 678 515 671 512 674C 507 680 517 710 524 710C 526 710 526 701 523 690zM157 678C 154 670 151 673 151 684C 150 695 153 701 156 697C 159 694 160 685 157 678zM497 598C 494 591 492 596 492 610C 492 624 494 629 497 623C 499 616 499 604 497 598zM513 565C 510 556 505 551 503 554C 500 557 501 563 505 569C 514 585 520 582 513 565zM490 486C 484 478 482 458 485 441C 488 423 486 410 480 410C 466 410 467 497 482 523L482 523L495 545L498 522C 500 509 497 493 490 486z" stroke="none" fill="#000000" fill-rule="nonzero" />
                        <path d="M450 1348C 421 1304 418 1295 444 1325C 466 1351 476 1370 467 1370C 466 1370 458 1360 450 1348z" stroke="none" fill="#000000" fill-rule="nonzero" />
                        <path d="M306 1113C 300 1099 301 1098 311 1107C 318 1114 321 1122 318 1125C 315 1128 309 1123 306 1113z" stroke="none" fill="#000000" fill-rule="nonzero" />
                        <path d="M276 1055C 267 1029 269 1023 281 1043C 287 1053 290 1064 287 1066C 285 1069 280 1064 276 1055z" stroke="none" fill="#000000" fill-rule="nonzero" />
                        <path d="M2850 1001C 2850 996 2843 989 2834 986C 2825 983 2822 984 2826 991C 2845 1023 2755 956 2706 902C 2649 839 2649 839 2655 873C 2662 911 2647 950 2626 950C 2609 950 2581 839 2573 745C 2568 684 2570 673 2587 657C 2616 632 2631 643 2663 710C 2696 782 2787 905 2826 931C 2842 942 2870 960 2889 972C 2919 991 2921 995 2904 1001C 2877 1012 2850 1012 2850 1001zM2810 976C 2810 974 2789 956 2763 935L2763 935L2715 898L2759 939C 2800 978 2810 985 2810 976z" stroke="none" fill="#000000" fill-rule="nonzero" />
                        <path d="M216 915C 207 889 209 883 221 903C 227 913 230 924 227 926C 225 929 220 924 216 915z" stroke="none" fill="#000000" fill-rule="nonzero" />
					</g>
				</g>
			</g>
		</g>
	</g>
</g>
</svg>